<?xml version="1.0" standalone="no"?>
<!DOCTYPE svg PUBLIC "-//W3C//DTD SVG 20010904//EN"
 "http://www.w3.org/TR/2001/REC-SVG-20010904/DTD/svg10.dtd">
<svg version="1.0" xmlns="http://www.w3.org/2000/svg"
 width="800.000000pt" height="800.000000pt" viewBox="0 0 800.000000 800.000000"
 preserveAspectRatio="xMidYMid meet">
<metadata>
Created by potrace 1.14, written by Peter Selinger 2001-2017
</metadata>
<g transform="translate(0.000000,800.000000) scale(0.100000,-0.100000)"
fill="#000000" stroke="none">
<path d="M7409 7745 c-31 -43 -115 -118 -243 -217 -33 -26 -119 -78 -191 -115
-71 -36 -181 -99 -244 -140 -63 -40 -137 -81 -165 -92 -59 -23 -273 -114 -461
-196 -310 -137 -691 -235 -1340 -345 -264 -44 -416 -59 -745 -71 -538 -21
-933 12 -1365 112 -263 61 -351 82 -395 94 -78 22 -294 112 -417 174 -117 59
-448 180 -552 202 -63 13 -174 6 -271 -18 -146 -35 -312 -150 -460 -317 -159
-181 -192 -248 -211 -435 -15 -147 -7 -173 63 -209 77 -38 126 -23 155 47 28
66 100 155 224 276 186 181 282 235 419 235 55 0 95 -10 226 -55 87 -30 229
-89 314 -130 85 -41 200 -92 255 -114 55 -22 141 -58 190 -79 50 -22 119 -47
155 -56 36 -9 116 -34 179 -56 175 -62 425 -136 540 -160 58 -11 108 -23 111
-25 15 -9 20 -141 20 -495 0 -351 -5 -471 -30 -720 -16 -166 -58 -473 -86
-638 -13 -79 -24 -161 -24 -182 0 -49 -46 -211 -63 -222 -7 -4 -91 -26 -187
-49 -186 -44 -432 -130 -576 -200 -79 -39 -104 -58 -256 -208 -190 -186 -218
-228 -219 -330 -2 -111 28 -131 196 -130 101 0 119 3 136 20 10 10 19 25 19
33 0 7 35 40 77 72 43 33 120 99 172 148 68 64 114 98 161 119 98 45 350 137
392 144 l38 6 -15 -49 c-27 -87 -62 -244 -109 -489 -111 -584 -184 -884 -303
-1255 -46 -146 -100 -314 -120 -375 -56 -175 -101 -253 -233 -405 -148 -170
-202 -216 -323 -275 -61 -30 -146 -63 -187 -75 -111 -30 -375 -52 -580 -48
l-175 3 -3 -25 c-2 -14 -11 -33 -20 -43 -23 -26 -19 -71 11 -116 15 -22 27
-50 27 -60 0 -39 43 -48 375 -76 313 -26 469 -17 683 41 135 36 243 89 379
186 165 117 251 202 338 333 115 174 134 218 322 729 54 146 123 374 123 405
0 9 11 63 25 120 35 145 68 329 105 581 34 238 35 244 58 315 8 28 32 113 53
190 39 142 80 288 121 426 l23 77 105 11 c101 10 293 19 909 42 157 5 288 12
291 14 10 6 731 35 876 35 l122 0 5 -287 c3 -180 11 -337 21 -418 16 -122 23
-221 45 -637 5 -92 12 -172 15 -177 4 -5 11 -106 16 -223 5 -117 19 -292 30
-388 11 -96 25 -218 31 -270 6 -52 14 -192 18 -310 7 -231 13 -256 63 -293 16
-12 48 -22 80 -24 66 -6 293 21 330 38 16 7 39 32 53 55 25 43 25 44 15 166
-5 68 -14 317 -20 553 -5 237 -14 567 -20 735 -5 168 -12 573 -14 901 l-5 596
202 6 c111 4 301 7 422 7 368 1 463 19 513 96 37 59 30 84 -38 148 -65 59
-112 79 -190 80 -25 0 -304 -5 -620 -12 -1191 -25 -1934 -47 -2104 -63 -55 -5
-246 -14 -425 -19 -179 -6 -414 -15 -521 -19 -107 -5 -196 -8 -198 -7 -1 2 4
32 13 68 16 72 28 177 45 398 6 80 17 197 25 261 8 63 19 178 25 255 6 76 19
258 30 404 11 146 26 310 33 365 9 64 11 148 8 234 l-6 133 60 -6 c140 -14
460 -18 628 -7 201 13 521 51 677 80 58 11 179 34 270 51 288 54 642 152 855
237 204 81 565 257 680 331 96 61 344 262 430 347 56 56 86 99 148 210 42 78
77 147 77 155 0 8 11 39 25 68 18 38 28 84 35 158 14 149 0 174 -99 174 -48 0
-51 -2 -82 -45z"/>
</g>
</svg>
